<svg width="314" height="36" viewBox="0 0 314 36" fill="none" xmlns="http://www.w3.org/2000/svg">
<path d="M25.5938 24.3594C25.2031 27.9531 23.9141 30.7031 21.7266 32.6094C19.5547 34.5156 16.6562 35.4688 13.0312 35.4688C10.5 35.4688 8.25781 34.8359 6.30469 33.5703C4.36719 32.3047 2.86719 30.5156 1.80469 28.2031C0.742188 25.875 0.203125 23.2188 0.1875 20.2344V15.8047C0.1875 12.7734 0.71875 10.0859 1.78125 7.74219C2.84375 5.39844 4.36719 3.59375 6.35156 2.32812C8.35156 1.04688 10.6484 0.40625 13.2422 0.40625C16.8984 0.40625 19.7812 1.39844 21.8906 3.38281C24.0156 5.35156 25.25 8.07812 25.5938 11.5625H22.6875C21.9688 5.76562 18.8203 2.86719 13.2422 2.86719C10.1484 2.86719 7.67969 4.02344 5.83594 6.33594C4.00781 8.64844 3.09375 11.8438 3.09375 15.9219V20.0938C3.09375 24.0312 3.98438 27.1719 5.76562 29.5156C7.5625 31.8594 9.98438 33.0312 13.0312 33.0312C16.0469 33.0312 18.3203 32.3125 19.8516 30.875C21.3828 29.4219 22.3281 27.25 22.6875 24.3594H25.5938ZM51.0234 25.4375H35.5312L32.0156 35H28.9922L41.9062 0.875H44.6484L57.5625 35H54.5625L51.0234 25.4375ZM36.4219 22.9766H50.1094L43.2656 4.39062L36.4219 22.9766ZM75.3516 20.7969H65.4375V35H62.5312V0.875H73.6172C77.2578 0.875 80.1016 1.75781 82.1484 3.52344C84.1953 5.28906 85.2188 7.75781 85.2188 10.9297C85.2188 13.1172 84.5781 15.0469 83.2969 16.7188C82.0156 18.3906 80.2969 19.5469 78.1406 20.1875L86.6719 34.6953V35H83.6016L75.3516 20.7969ZM65.4375 18.3359H74.2734C76.6953 18.3359 78.6406 17.6484 80.1094 16.2734C81.5781 14.8984 82.3125 13.1172 82.3125 10.9297C82.3125 8.52344 81.5469 6.65625 80.0156 5.32812C78.4844 4 76.3359 3.33594 73.5703 3.33594H65.4375V18.3359ZM95.9766 32.5625H112.828V35H93.0703V0.875H95.9766V32.5625ZM142.055 19.7891C142.055 22.9297 141.508 25.6875 140.414 28.0625C139.336 30.4375 137.789 32.2656 135.773 33.5469C133.758 34.8281 131.43 35.4688 128.789 35.4688C124.805 35.4688 121.586 34.0469 119.133 31.2031C116.68 28.3438 115.453 24.4922 115.453 19.6484V16.1328C115.453 13.0234 116 10.2734 117.094 7.88281C118.203 5.47656 119.766 3.63281 121.781 2.35156C123.797 1.05469 126.117 0.40625 128.742 0.40625C131.367 0.40625 133.68 1.03906 135.68 2.30469C137.695 3.57031 139.25 5.35938 140.344 7.67188C141.438 9.98438 142.008 12.6641 142.055 15.7109V19.7891ZM139.172 16.0859C139.172 11.9766 138.242 8.75781 136.383 6.42969C134.523 4.10156 131.977 2.9375 128.742 2.9375C125.57 2.9375 123.039 4.10938 121.148 6.45312C119.273 8.78125 118.336 12.0391 118.336 16.2266V19.7891C118.336 23.8359 119.273 27.0469 121.148 29.4219C123.023 31.7812 125.57 32.9609 128.789 32.9609C132.055 32.9609 134.602 31.7969 136.43 29.4688C138.258 27.125 139.172 23.8672 139.172 19.6953V16.0859ZM168.633 26.6094C168.633 24.7188 167.969 23.2266 166.641 22.1328C165.312 21.0234 162.883 19.9766 159.352 18.9922C155.82 17.9922 153.242 16.9062 151.617 15.7344C149.305 14.0781 148.148 11.9062 148.148 9.21875C148.148 6.60938 149.219 4.49219 151.359 2.86719C153.516 1.22656 156.266 0.40625 159.609 0.40625C161.875 0.40625 163.898 0.84375 165.68 1.71875C167.477 2.59375 168.867 3.8125 169.852 5.375C170.836 6.9375 171.328 8.67969 171.328 10.6016H168.422C168.422 8.27344 167.625 6.40625 166.031 5C164.438 3.57812 162.297 2.86719 159.609 2.86719C157 2.86719 154.922 3.45312 153.375 4.625C151.828 5.78125 151.055 7.29688 151.055 9.17188C151.055 10.9062 151.75 12.3203 153.141 13.4141C154.531 14.5078 156.758 15.4766 159.82 16.3203C162.883 17.1484 165.203 18.0156 166.781 18.9219C168.359 19.8125 169.547 20.8828 170.344 22.1328C171.141 23.3828 171.539 24.8594 171.539 26.5625C171.539 29.25 170.461 31.4062 168.305 33.0312C166.164 34.6562 163.336 35.4688 159.82 35.4688C157.414 35.4688 155.203 35.0391 153.188 34.1797C151.188 33.3203 149.664 32.1172 148.617 30.5703C147.586 29.0234 147.07 27.25 147.07 25.25H149.953C149.953 27.6562 150.852 29.5547 152.648 30.9453C154.445 32.3359 156.836 33.0312 159.82 33.0312C162.477 33.0312 164.609 32.4453 166.219 31.2734C167.828 30.1016 168.633 28.5469 168.633 26.6094ZM195.773 27.9688H183.445L181.102 35H173.625L186.328 0.875H192.844L205.617 35H198.141L195.773 27.9688ZM185.344 22.2734H193.875L189.586 9.5L185.344 22.2734ZM215.836 29.3516H230.766V35H208.805V0.875H215.836V29.3516ZM242.602 26.5391L250.336 0.875H258.164L246.281 35H238.945L227.109 0.875H234.914L242.602 26.5391ZM281.93 20.2109H268.43V29.3516H284.273V35H261.398V0.875H284.227V6.57031H268.43V14.7031H281.93V20.2109ZM306.094 26.0469C306.094 24.7188 305.625 23.7031 304.688 23C303.75 22.2812 302.062 21.5312 299.625 20.75C297.188 19.9531 295.258 19.1719 293.836 18.4062C289.961 16.3125 288.023 13.4922 288.023 9.94531C288.023 8.10156 288.539 6.46094 289.57 5.02344C290.617 3.57031 292.109 2.4375 294.047 1.625C296 0.8125 298.188 0.40625 300.609 0.40625C303.047 0.40625 305.219 0.851562 307.125 1.74219C309.031 2.61719 310.508 3.85938 311.555 5.46875C312.617 7.07812 313.148 8.90625 313.148 10.9531H306.117C306.117 9.39062 305.625 8.17969 304.641 7.32031C303.656 6.44531 302.273 6.00781 300.492 6.00781C298.773 6.00781 297.438 6.375 296.484 7.10938C295.531 7.82812 295.055 8.78125 295.055 9.96875C295.055 11.0781 295.609 12.0078 296.719 12.7578C297.844 13.5078 299.492 14.2109 301.664 14.8672C305.664 16.0703 308.578 17.5625 310.406 19.3438C312.234 21.125 313.148 23.3438 313.148 26C313.148 28.9531 312.031 31.2734 309.797 32.9609C307.562 34.6328 304.555 35.4688 300.773 35.4688C298.148 35.4688 295.758 34.9922 293.602 34.0391C291.445 33.0703 289.797 31.75 288.656 30.0781C287.531 28.4062 286.969 26.4688 286.969 24.2656H294.023C294.023 28.0312 296.273 29.9141 300.773 29.9141C302.445 29.9141 303.75 29.5781 304.688 28.9062C305.625 28.2188 306.094 27.2656 306.094 26.0469Z" fill="#5e60ce"/>
</svg>
